<svg width="16" height="16" viewBox="0 0 16 16" fill="none" xmlns="http://www.w3.org/2000/svg">
<path opacity="0.36" fill-rule="evenodd" clip-rule="evenodd" d="M8 0L0 8L8 16L16 8L8 0ZM7.98495 1.11834L1.11816 7.98513L7.98495 14.8519L14.8517 7.98513L7.98495 1.11834Z" fill="#FFCD08"/>
<path d="M9.09091 5L9.90909 6.66667H10.4545C10.7573 6.66667 11 7.0375 11 7.5V8.75H10.4545C10.4545 9.08152 10.3683 9.39946 10.2149 9.63388C10.0615 9.8683 9.85336 10 9.63636 10C9.41937 10 9.21126 9.8683 9.05782 9.63388C8.90438 9.39946 8.81818 9.08152 8.81818 8.75H7.18182C7.18182 9.08152 7.09562 9.39946 6.94218 9.63388C6.78874 9.8683 6.58063 10 6.36364 10C6.14664 10 5.93853 9.8683 5.78509 9.63388C5.63166 9.39946 5.54545 9.08152 5.54545 8.75H5V7.5C5 7.0375 5.24273 6.66667 5.54545 6.66667L6.36364 5H9.09091ZM7.59091 5.625H6.56818L6.05273 6.66667H7.59091V5.625ZM8 5.625V6.66667H9.40182L8.88636 5.625H8ZM6.36364 8.125C6.25514 8.125 6.15108 8.19085 6.07437 8.30806C5.99765 8.42527 5.95455 8.58424 5.95455 8.75C5.95455 8.91576 5.99765 9.07473 6.07437 9.19194C6.15108 9.30915 6.25514 9.375 6.36364 9.375C6.47213 9.375 6.57619 9.30915 6.65291 9.19194C6.72963 9.07473 6.77273 8.91576 6.77273 8.75C6.77273 8.58424 6.72963 8.42527 6.65291 8.30806C6.57619 8.19085 6.47213 8.125 6.36364 8.125ZM9.63636 8.125C9.52787 8.125 9.42381 8.19085 9.34709 8.30806C9.27037 8.42527 9.22727 8.58424 9.22727 8.75C9.22727 8.91576 9.27037 9.07473 9.34709 9.19194C9.42381 9.30915 9.52787 9.375 9.63636 9.375C9.74486 9.375 9.84892 9.30915 9.92563 9.19194C10.0024 9.07473 10.0455 8.91576 10.0455 8.75C10.0455 8.58424 10.0024 8.42527 9.92563 8.30806C9.84892 8.19085 9.74486 8.125 9.63636 8.125Z" fill="white"/>
<path fill-rule="evenodd" clip-rule="evenodd" d="M4 6.556V7.176L4.596 7.076V7.8H5.64V6.9L6.332 6.784L7.472 7.8H8.69987L9.94 9.79998H10.956L12.684 6.99998H11.584L10.456 8.85198L9.32 6.99998H8.0163L7.544 6.58L8.752 6.376V5H4.596V6.456L4 6.556ZM7.708 5.924L5.64 6.272V5.568H7.708V5.924Z" fill="#FFCD08"/>
</svg>
