<svg width="36" height="36" viewBox="0 0 36 36" fill="none" xmlns="http://www.w3.org/2000/svg">
<path opacity="0.36" fill-rule="evenodd" clip-rule="evenodd" d="M18 0L0 18L18 36L36 18L18 0ZM17.9669 2.51631L2.5166 17.9666L17.9669 33.4169L33.4172 17.9666L17.9669 2.51631Z" fill="#FFCD08"/>
<path d="M21.2273 12L23.2727 16.3333H24.6364C25.3932 16.3333 26 17.2975 26 18.5V21.75H24.6364C24.6364 22.612 24.4209 23.4386 24.0373 24.0481C23.6537 24.6576 23.1334 25 22.5909 25C22.0484 25 21.5282 24.6576 21.1446 24.0481C20.761 23.4386 20.5455 22.612 20.5455 21.75H16.4545C16.4545 22.612 16.239 23.4386 15.8554 24.0481C15.4718 24.6576 14.9516 25 14.4091 25C13.8666 25 13.3463 24.6576 12.9627 24.0481C12.5791 23.4386 12.3636 22.612 12.3636 21.75H11V18.5C11 17.2975 11.6068 16.3333 12.3636 16.3333L14.4091 12H21.2273ZM17.4773 13.625H14.9205L13.6318 16.3333H17.4773V13.625ZM18.5 13.625V16.3333H22.0045L20.7159 13.625H18.5ZM14.4091 20.125C14.1378 20.125 13.8777 20.2962 13.6859 20.601C13.4941 20.9057 13.3864 21.319 13.3864 21.75C13.3864 22.181 13.4941 22.5943 13.6859 22.899C13.8777 23.2038 14.1378 23.375 14.4091 23.375C14.6803 23.375 14.9405 23.2038 15.1323 22.899C15.3241 22.5943 15.4318 22.181 15.4318 21.75C15.4318 21.319 15.3241 20.9057 15.1323 20.601C14.9405 20.2962 14.6803 20.125 14.4091 20.125ZM22.5909 20.125C22.3197 20.125 22.0595 20.2962 21.8677 20.601C21.6759 20.9057 21.5682 21.319 21.5682 21.75C21.5682 22.181 21.6759 22.5943 21.8677 22.899C22.0595 23.2038 22.3197 23.375 22.5909 23.375C22.8622 23.375 23.1223 23.2038 23.3141 22.899C23.5059 22.5943 23.6136 22.181 23.6136 21.75C23.6136 21.319 23.5059 20.9057 23.3141 20.601C23.1223 20.2962 22.8622 20.125 22.5909 20.125Z" fill="white"/>
<path fill-rule="evenodd" clip-rule="evenodd" d="M7 15.579V17.284L8.639 17.009V19H11.51V16.525L13.413 16.206L15.89 18.4136V18.862H16.3932L16.548 19H17.6146L21.335 25H24.129L28.881 17.3H25.856L22.754 22.393L19.63 17.3H18.6072L16.746 15.645L20.068 15.084V11.3H8.639V15.304L7 15.579ZM17.197 13.841L11.51 14.798V12.862H17.197V13.841Z" fill="#FFCD08"/>
</svg>
